<svg width="30" height="30" viewBox="0 0 30 30" fill="none" xmlns="http://www.w3.org/2000/svg">
<circle cx="15" cy="15" r="15" fill="#0098DA" fill-opacity="0.2"/>
<path d="M11.2485 6C8.35429 6 6 8.35646 6 11.2515V18.7515C6 21.6457 8.35646 24 11.2515 24H18.7515C21.6457 24 24 21.6435 24 18.7485V11.2485C24 8.35429 21.6435 6 18.7485 6H11.2485ZM20.25 9C20.664 9 21 9.336 21 9.75C21 10.164 20.664 10.5 20.25 10.5C19.836 10.5 19.5 10.164 19.5 9.75C19.5 9.336 19.836 9 20.25 9ZM15 10.5C17.4818 10.5 19.5 12.5182 19.5 15C19.5 17.4818 17.4818 19.5 15 19.5C12.5182 19.5 10.5 17.4818 10.5 15C10.5 12.5182 12.5182 10.5 15 10.5ZM15 12C14.2044 12 13.4413 12.3161 12.8787 12.8787C12.3161 13.4413 12 14.2044 12 15C12 15.7956 12.3161 16.5587 12.8787 17.1213C13.4413 17.6839 14.2044 18 15 18C15.7956 18 16.5587 17.6839 17.1213 17.1213C17.6839 16.5587 18 15.7956 18 15C18 14.2044 17.6839 13.4413 17.1213 12.8787C16.5587 12.3161 15.7956 12 15 12Z" fill="#0098DA"/>
</svg>
