<svg width="30" height="30" viewBox="0 0 30 30" fill="none" xmlns="http://www.w3.org/2000/svg">
<circle cx="15" cy="15" r="15" fill="#0098DA" fill-opacity="0.2"/>
<path d="M10.5 23.25H6.75V12H10.5V23.25ZM8.62575 10.5C7.5885 10.5 6.75 9.65925 6.75 8.62425C6.75 7.58925 7.59 6.75 8.62575 6.75C9.65925 6.75 10.5 7.59075 10.5 8.62425C10.5 9.65925 9.65925 10.5 8.62575 10.5ZM24 23.25H20.3948V17.775C20.3948 16.4693 20.37 14.79 18.5205 14.79C16.6433 14.79 16.3545 16.212 16.3545 17.6805V23.25H12.75V11.9918H16.2105V13.53H16.2593C16.7408 12.645 17.9175 11.712 19.6725 11.712C23.325 11.712 24 14.0438 24 17.0753C24 17.0752 24 23.25 24 23.25Z" fill="#0098DA"/>
</svg>
