<svg width="30" height="30" viewBox="0 0 30 30" fill="none" xmlns="http://www.w3.org/2000/svg">
<circle cx="15" cy="15" r="15" fill="#0098DA" fill-opacity="0.2"/>
<path d="M24.7507 8.9529C24.033 9.27165 23.262 9.48615 22.4528 9.5829C23.2793 9.0879 23.913 8.30415 24.2115 7.36965C23.439 7.8279 22.5825 8.1609 21.6705 8.3409C20.9407 7.56315 19.9012 7.07715 18.7507 7.07715C16.5412 7.07715 14.7503 8.8689 14.7503 11.0776C14.7503 11.3911 14.7863 11.6971 14.8538 11.9889C11.529 11.8224 8.5815 10.2294 6.6075 7.8084C6.264 8.3994 6.06675 9.0864 6.06675 9.82065C6.06675 11.2081 6.7725 12.4329 7.84575 13.1499C7.19025 13.1289 6.573 12.9489 6.03375 12.6496C6.03375 12.6669 6.03375 12.6826 6.03375 12.6999C6.03375 14.6386 7.41225 16.2556 9.243 16.6224C8.90775 16.7139 8.55375 16.7626 8.1885 16.7626C7.93125 16.7626 7.68 16.7371 7.43625 16.6914C7.9455 18.2806 9.423 19.4379 11.1735 19.4701C9.80475 20.5434 8.07975 21.1831 6.20475 21.1831C5.88225 21.1831 5.5635 21.1644 5.25 21.1269C7.02075 22.2617 9.123 22.9239 11.3828 22.9239C18.7418 22.9239 22.7647 16.8279 22.7647 11.5411C22.7647 11.3679 22.761 11.1954 22.7535 11.0236C23.5357 10.4589 24.2145 9.75465 24.7507 8.9529Z" fill="#0098DA"/>
</svg>
